<mxfile host="app.diagrams.net" modified="2024-02-04T09:45:53.648Z" agent="Mozilla/5.0 (Windows NT 10.0; Win64; x64) AppleWebKit/537.36 (KHTML, like Gecko) Chrome/120.0.0.0 Safari/537.36 Edg/120.0.0.0" version="23.1.1" etag="avTOj-tDwnUBhVA9iL16" type="github">
  <diagram name="第 1 页" id="S-QAOdIw7Kld3kSzRF4W">
    <mxGraphModel>
      <root>
        <mxCell id="0" />
        <mxCell id="1" parent="0" />
      </root>
    </mxGraphModel>
  </diagram>
</mxfile>
